<svg id="seek_bar" data-name="seek bar" xmlns="http://www.w3.org/2000/svg" width="315" height="45" viewBox="0 0 315 45">
  <rect id="Rectangle_4" data-name="Rectangle 4" width="3" height="12" rx="1.5" transform="translate(0 17)" fill="#54b0f3"/>
  <rect id="Rectangle_4_Copy" data-name="Rectangle 4 Copy" width="3" height="18" rx="1.5" transform="translate(6 14)" fill="#54b0f3"/>
  <rect id="Rectangle_4_Copy_2" data-name="Rectangle 4 Copy 2" width="3" height="22" rx="1.5" transform="translate(12 12)" fill="#54b0f3"/>
  <rect id="Rectangle_4_Copy_3" data-name="Rectangle 4 Copy 3" width="3" height="40" rx="1.5" transform="translate(18 3)" fill="#54b0f3"/>
  <rect id="Rectangle_4_Copy_4" data-name="Rectangle 4 Copy 4" width="3" height="15" rx="1.5" transform="translate(24 15)" fill="#54b0f3"/>
  <rect id="Rectangle_4_Copy_5" data-name="Rectangle 4 Copy 5" width="3" height="21" rx="1.5" transform="translate(30 13)" fill="#54b0f3"/>
  <rect id="Rectangle_4_Copy_6" data-name="Rectangle 4 Copy 6" width="3" height="30" rx="1.5" transform="translate(36 8)" fill="#54b0f3"/>
  <rect id="Rectangle_4_Copy_7" data-name="Rectangle 4 Copy 7" width="3" height="40" rx="1.5" transform="translate(42 3)" fill="#54b0f3"/>
  <rect id="Rectangle_4_Copy_8" data-name="Rectangle 4 Copy 8" width="3" height="22" rx="1.5" transform="translate(48 12)" fill="#54b0f3"/>
  <rect id="Rectangle_4_Copy_9" data-name="Rectangle 4 Copy 9" width="3" height="36" rx="1.5" transform="translate(54 5)" fill="#54b0f3"/>
  <rect id="Rectangle_4_Copy_10" data-name="Rectangle 4 Copy 10" width="3" height="21" rx="1.5" transform="translate(60 13)" fill="#54b0f3"/>
  <rect id="Rectangle_4_Copy_11" data-name="Rectangle 4 Copy 11" width="3" height="40" rx="1.5" transform="translate(66 3)" fill="#54b0f3"/>
  <rect id="Rectangle_4_Copy_12" data-name="Rectangle 4 Copy 12" width="3" height="22" rx="1.5" transform="translate(72 12)" fill="#54b0f3"/>
  <rect id="Rectangle_4_Copy_13" data-name="Rectangle 4 Copy 13" width="3" height="31" rx="1.5" transform="translate(78 8)" fill="#54b0f3"/>
  <rect id="Rectangle_4_Copy_14" data-name="Rectangle 4 Copy 14" width="3" height="30" rx="1.5" transform="translate(84 8)" fill="#54b0f3"/>
  <rect id="Rectangle_4_Copy_15" data-name="Rectangle 4 Copy 15" width="3" height="22" rx="1.5" transform="translate(90 12)" fill="#54b0f3"/>
  <rect id="Rectangle_4_Copy_16" data-name="Rectangle 4 Copy 16" width="3" height="45" rx="1.5" transform="translate(96)" fill="#54b0f3"/>
  <rect id="Rectangle_4_Copy_33" data-name="Rectangle 4 Copy 33" width="3" height="18" rx="1.5" transform="translate(102 14)" fill="#54b0f3"/>
  <rect id="Rectangle_4_Copy_32" data-name="Rectangle 4 Copy 32" width="3" height="36" rx="1.5" transform="translate(108 5)" fill="#54b0f3"/>
  <rect id="Rectangle_4_Copy_31" data-name="Rectangle 4 Copy 31" width="3" height="32" rx="1.5" transform="translate(114 6)" fill="#54b0f3"/>
  <rect id="Rectangle_4_Copy_30" data-name="Rectangle 4 Copy 30" width="3" height="21" rx="1.5" transform="translate(120 13)" fill="#54b0f3"/>
  <rect id="Rectangle_4_Copy_29" data-name="Rectangle 4 Copy 29" width="3" height="21" rx="1.5" transform="translate(126 13)" fill="#54b0f3"/>
  <rect id="Rectangle_4_Copy_28" data-name="Rectangle 4 Copy 28" width="3" height="35" rx="1.5" transform="translate(132 5)" fill="#54b0f3"/>
  <rect id="Rectangle_4_Copy_27" data-name="Rectangle 4 Copy 27" width="3" height="15" rx="1.5" transform="translate(138 15)" fill="#54b0f3"/>
  <rect id="Rectangle_4_Copy_26" data-name="Rectangle 4 Copy 26" width="3" height="33" rx="1.5" transform="translate(144 6)" fill="#54b0f3"/>
  <rect id="Rectangle_4_Copy_25" data-name="Rectangle 4 Copy 25" width="3" height="21" rx="1.5" transform="translate(150 13)" fill="#54b0f3"/>
  <rect id="Rectangle_4_Copy_24" data-name="Rectangle 4 Copy 24" width="3" height="45" rx="1.5" transform="translate(156)" fill="#54b0f3"/>
  <rect id="Rectangle_4_Copy_23" data-name="Rectangle 4 Copy 23" width="3" height="21" rx="1.5" transform="translate(162 13)" fill="#54b0f3"/>
  <rect id="Rectangle_4_Copy_22" data-name="Rectangle 4 Copy 22" width="3" height="21" rx="1.5" transform="translate(168 13)" fill="#54b0f3"/>
  <rect id="Rectangle_4_Copy_21" data-name="Rectangle 4 Copy 21" width="3" height="15" rx="1.5" transform="translate(174 15)" fill="#54b0f3"/>
  <rect id="Rectangle_4_Copy_20" data-name="Rectangle 4 Copy 20" width="3" height="35" rx="1.5" transform="translate(180 5)" fill="#54b0f3"/>
  <rect id="Rectangle_4_Copy_19" data-name="Rectangle 4 Copy 19" width="3" height="27" rx="1.5" transform="translate(186 9)" fill="#54b0f3"/>
  <rect id="Rectangle_4_Copy_18" data-name="Rectangle 4 Copy 18" width="3" height="39" rx="1.5" transform="translate(192 4)" fill="#54b0f3"/>
  <rect id="Rectangle_4_Copy_17" data-name="Rectangle 4 Copy 17" width="3" height="22" rx="1.5" transform="translate(198 12)" fill="#54b0f3"/>
  <rect id="Rectangle_4_Copy_50" data-name="Rectangle 4 Copy 50" width="3" height="33" rx="1.5" transform="translate(204 6)" fill="#54b0f3"/>
  <rect id="Rectangle_4_Copy_49" data-name="Rectangle 4 Copy 49" width="3" height="27" rx="1.5" transform="translate(210 9)" fill="#54b0f3"/>
  <rect id="Rectangle_4_Copy_48" data-name="Rectangle 4 Copy 48" width="3" height="30" rx="1.5" transform="translate(216 8)" fill="#54b0f3"/>
  <rect id="Rectangle_4_Copy_47" data-name="Rectangle 4 Copy 47" width="3" height="22" rx="1.5" transform="translate(222 12)" fill="#54b0f3"/>
  <rect id="Rectangle_4_Copy_46" data-name="Rectangle 4 Copy 46" width="3" height="31" rx="1.5" transform="translate(228 8)" fill="#54b0f3"/>
  <rect id="Rectangle_4_Copy_45" data-name="Rectangle 4 Copy 45" width="3" height="15" rx="1.5" transform="translate(234 15)" fill="#54b0f3"/>
  <rect id="Rectangle_4_Copy_44" data-name="Rectangle 4 Copy 44" width="3" height="22" rx="1.5" transform="translate(240 12)" fill="#54b0f3"/>
  <rect id="Rectangle_4_Copy_43" data-name="Rectangle 4 Copy 43" width="3" height="21" rx="1.5" transform="translate(246 13)" fill="#54b0f3"/>
  <rect id="Rectangle_4_Copy_42" data-name="Rectangle 4 Copy 42" width="3" height="22" rx="1.5" transform="translate(252 12)" fill="#54b0f3"/>
  <rect id="Rectangle_4_Copy_41" data-name="Rectangle 4 Copy 41" width="3" height="36" rx="1.5" transform="translate(258 5)" fill="#54b0f3"/>
  <rect id="Rectangle_4_Copy_40" data-name="Rectangle 4 Copy 40" width="3" height="21" rx="1.5" transform="translate(264 13)" fill="#54b0f3"/>
  <rect id="Rectangle_4_Copy_39" data-name="Rectangle 4 Copy 39" width="3" height="15" rx="1.5" transform="translate(270 15)" fill="#ffffff"/>
  <rect id="Rectangle_4_Copy_38" data-name="Rectangle 4 Copy 38" width="3" height="30" rx="1.5" transform="translate(276 8)" fill="#ffffff"/>
  <rect id="Rectangle_4_Copy_37" data-name="Rectangle 4 Copy 37" width="3" height="21" rx="1.5" transform="translate(282 13)" fill="#ffffff"/>
  <rect id="Rectangle_4_Copy_36" data-name="Rectangle 4 Copy 36" width="3" height="22" rx="1.5" transform="translate(288 12)" fill="#ffffff"/>
  <rect id="Rectangle_4_Copy_35" data-name="Rectangle 4 Copy 35" width="3" height="15" rx="1.5" transform="translate(294 15)" fill="#ffffff"/>
  <rect id="Rectangle_4_Copy_34" data-name="Rectangle 4 Copy 34" width="3" height="22" rx="1.5" transform="translate(300 12)" fill="#ffffff"/>
  <rect id="Rectangle_4_Copy_51" data-name="Rectangle 4 Copy 51" width="3" height="31" rx="1.5" transform="translate(306 8)" fill="#ffffff"/>
  <rect id="Rectangle_4_Copy_52" data-name="Rectangle 4 Copy 52" width="3" height="21" rx="1.5" transform="translate(312 13)" fill="#ffffff"/>
</svg>
